<?xml version="1.0" encoding="utf-8"?>
<!-- Generator: Adobe Illustrator 24.1.0, SVG Export Plug-In . SVG Version: 6.00 Build 0)  -->
<svg version="1.1" id="レイヤー_1" xmlns="http://www.w3.org/2000/svg" xmlns:xlink="http://www.w3.org/1999/xlink" x="0px"
	 y="0px" viewBox="0 0 2630 660" style="enable-background:new 0 0 2630 660;" xml:space="preserve">
<style type="text/css">
	.st0{fill:url(#SVGID_1_);}
	.st1{fill:url(#SVGID_2_);}
	.st2{fill:url(#SVGID_3_);}
	.st3{fill:url(#SVGID_4_);}
	.st4{fill:url(#SVGID_5_);}
	.st5{fill:url(#SVGID_6_);}
	.st6{fill:url(#SVGID_7_);}
</style>
<g>
	
		<linearGradient id="SVGID_1_" gradientUnits="userSpaceOnUse" x1="1006.88" y1="343.976" x2="1374.2399" y2="343.976" gradientTransform="matrix(1 0 0 -1 0 679.8517)">
		<stop  offset="0" style="stop-color:#0086FF"/>
		<stop  offset="1" style="stop-color:#1170D1"/>
	</linearGradient>
	<path class="st0" d="M1006.9,335.2c0-136.8,92.5-222.8,237.7-222.8c44.9,0,85.3,9.8,125.1,28.7v108.8
		c-39.1-23.5-78.2-34.5-121.2-34.5c-74.2,0-122.4,46.3-122.4,119.8c0,74.2,48.2,121.2,122.4,121.2c45.6,0,85.3-12.4,125.7-36.5
		v107.5c-41,22.2-82.7,31.9-129.6,31.9C1099.4,559.3,1006.9,472,1006.9,335.2z"/>
	
		<linearGradient id="SVGID_2_" gradientUnits="userSpaceOnUse" x1="1442.63" y1="343.976" x2="1719.46" y2="343.976" gradientTransform="matrix(1 0 0 -1 0 679.8517)">
		<stop  offset="0" style="stop-color:#0086FF"/>
		<stop  offset="1" style="stop-color:#1170D1"/>
	</linearGradient>
	<path class="st1" d="M1442.6,121.6h114.6V446h162.2v104.2h-276.8L1442.6,121.6L1442.6,121.6z"/>
	
		<linearGradient id="SVGID_3_" gradientUnits="userSpaceOnUse" x1="1775.46" y1="343.976" x2="1890.0999" y2="343.976" gradientTransform="matrix(1 0 0 -1 0 679.8517)">
		<stop  offset="0" style="stop-color:#0086FF"/>
		<stop  offset="1" style="stop-color:#1170D1"/>
	</linearGradient>
	<path class="st2" d="M1775.5,121.6h114.6v428.6h-114.6V121.6z"/>
	
		<linearGradient id="SVGID_4_" gradientUnits="userSpaceOnUse" x1="1970.8501" y1="343.9709" x2="2284.1501" y2="343.9709" gradientTransform="matrix(1 0 0 -1 0 679.8517)">
		<stop  offset="0" style="stop-color:#0086FF"/>
		<stop  offset="1" style="stop-color:#1170D1"/>
	</linearGradient>
	<path class="st3" d="M1970.9,121.6h144.6c103.6,0,168.7,63.2,168.7,151.8c0,89.9-65.8,153.1-169.4,153.1h-29.3v123.8h-114.6V121.6z
		 M2109.6,330c35.8,0,58.6-22.2,58.6-56.7c0-32.6-22.8-53.4-59.3-53.4h-23.4V330L2109.6,330L2109.6,330z"/>
	
		<linearGradient id="SVGID_5_" gradientUnits="userSpaceOnUse" x1="2331.7" y1="343.9759" x2="2630.0203" y2="343.9759" gradientTransform="matrix(1 0 0 -1 0 679.8517)">
		<stop  offset="0" style="stop-color:#0086FF"/>
		<stop  offset="1" style="stop-color:#1170D1"/>
	</linearGradient>
	<path class="st4" d="M2337.6,531.3V425.1c39.1,22.2,82.7,33.2,125.1,33.2c28.7,0,46.2-11.7,46.2-32.6c0-18.9-15.6-32.6-48.9-42.3
		l-17.6-4.6c-74.2-20.2-110.7-66.4-110.7-130.9c0-81.4,60.6-134.8,156.3-134.8c40.4,0,83.4,7.2,123.1,23.5v105.5
		c-35.8-19.5-75.6-30-113.3-30c-28,0-44.3,9.1-44.3,29.3c0,17.6,15,30,45.6,39.1l17.6,4.6c76.9,20.8,113.3,67.7,113.3,130.3
		c0,90.5-61.9,143.3-160.9,143.3C2426.1,558.6,2380.6,549.5,2337.6,531.3z"/>
</g>
<g>
	
		<linearGradient id="SVGID_6_" gradientUnits="userSpaceOnUse" x1="52.23" y1="465.4892" x2="704.51" y2="465.4892" gradientTransform="matrix(1 0 0 -1 0 679.8517)">
		<stop  offset="0" style="stop-color:#0086FF"/>
		<stop  offset="1" style="stop-color:#1170D1"/>
	</linearGradient>
	<path class="st5" d="M704.5,132.2c0-12.5-9-23.2-21.3-25.4L336.6,45.4l-0.6-0.1L82.5,0.4C66.7-2.4,52.2,9.7,52.2,25.8V403
		c0,14.8,12.5,26.6,27.2,25.7l232.8-13.5c13.6-0.8,24.3-12.1,24.3-25.7V256.9c0-14.8,12.5-26.6,27.3-25.7l313.4,18.7
		c14.8,0.9,27.3-10.9,27.3-25.7L704.5,132.2L704.5,132.2z"/>
	
		<linearGradient id="SVGID_7_" gradientUnits="userSpaceOnUse" x1="662.6378" y1="219.8424" x2="-18.3029" y2="228.1422" gradientTransform="matrix(1 0 0 -1 0 679.8517)">
		<stop  offset="0" style="stop-color:#1770CF"/>
		<stop  offset="8.820000e-02" style="stop-color:#1674D6"/>
		<stop  offset="0.4053" style="stop-color:#117EEC"/>
		<stop  offset="0.7134" style="stop-color:#0F84F9"/>
		<stop  offset="1" style="stop-color:#0E86FD"/>
	</linearGradient>
	<path class="st6" d="M510.8,272.6v118.3c0,11.6-9,21.2-20.7,21.9l-469.5,28C9,441.5,0,451.1,0,462.7v175.4
		c0,13.7,12.3,24,25.8,21.6l485.1-85.9l0.5-0.1l145.8-25.8c10.5-1.9,18.1-11,18.1-21.6V279.5c0-11.6-9.1-21.2-20.7-21.9l-120.5-7
		C521.5,249.9,510.8,259.9,510.8,272.6z"/>
</g>
</svg>
